PathFileType	4	(X/Y/Z)	s07c0001.trc
DataRate	CameraRate	NumFrames	NumMarkers	Units	OrigDataRate	OrigDataStartFrame	OrigNumFrames
200	200	4	49	mm	200	1250	2000
Frame#	Time	racr			lacr			c7			jug			rlel			rdr			llel			ldr			s2			lic			ric			lasi			rasi			rpsi			lpsi			rgt			lgt			rth1			rth2			rth3			rth4			rlfc			rmfc			rsh1			rsh2			rsh3			rsh4			rlmal			rmmal			rcal			rtoe			rmt5			rmt1			lth1			lth2			lth4			lth3			llfc			lmfc			lsh1			lsh2			lsh3			lsh4			llmal			lmmal			lcal			ltoe			lmt1			lmt5			
		X1	Y1	Z1	X2	Y2	Z2	X3	Y3	Z3	X4	Y4	Z4	X5	Y5	Z5	X6	Y6	Z6	X7	Y7	Z7	X8	Y8	Z8	X9	Y9	Z9	X10	Y10	Z10	X11	Y11	Z11	X12	Y12	Z12	X13	Y13	Z13	X14	Y14	Z14	X15	Y15	Z15	X16	Y16	Z16	X17	Y17	Z17	X18	Y18	Z18	X19	Y19	Z19	X20	Y20	Z20	X21	Y21	Z21	X22	Y22	Z22	X23	Y23	Z23	X24	Y24	Z24	X25	Y25	Z25	X26	Y26	Z26	X27	Y27	Z27	X28	Y28	Z28	X29	Y29	Z29	X30	Y30	Z30	X31	Y31	Z31	X32	Y32	Z32	X33	Y33	Z33	X34	Y34	Z34	X35	Y35	Z35	X36	Y36	Z36	X37	Y37	Z37	X38	Y38	Z38	X39	Y39	Z39	X40	Y40	Z40	X41	Y41	Z41	X42	Y42	Z42	X43	Y43	Z43	X44	Y44	Z44	X45	Y45	Z45	X46	Y46	Z46	X47	Y47	Z47	X48	Y48	Z48	X49	Y49	Z49	
1250	6.2500	181.514999	1569.105103	558.955200	209.391876	1568.268921	188.751328	148.760651	1607.604614	369.850342	270.615265	1516.794800	380.852386	248.138031	1224.604004	691.650146	398.270996	987.081726	804.674988	284.204132	1213.980347	92.634323	438.113831	975.098145	-9.554340	116.743805	1060.780640	362.834381	261.872101	1143.437988	226.914734	248.245163	1132.246948	531.048889	326.689331	1075.527344	260.166077	296.683136	1073.356934	523.543030	0.000000	0.000000	-0.000000	144.811310	1102.826538	307.534119	212.442154	976.191833	559.458191	245.208771	973.419067	209.550446	221.360733	847.440002	562.191467	244.416687	762.468323	554.813538	224.084198	679.526123	545.902222	280.734314	764.420471	547.144897	222.654800	538.039062	511.734924	231.792969	527.088806	416.118988	182.373596	400.524170	528.849426	199.449661	314.249603	509.198578	170.911514	232.739914	503.497864	222.764954	317.937927	476.761108	159.009888	91.813599	488.555420	200.969284	105.625359	410.904572	113.900787	41.323837	446.968384	395.393951	86.084343	505.287476	311.043427	36.210876	557.010986	328.186035	43.912735	449.520538	254.754089	855.875977	195.645676	277.520660	771.071655	203.191101	311.987762	771.926758	217.497238	253.937927	685.759033	211.170410	248.073700	531.122742	239.643829	242.225510	515.410583	327.591583	213.065308	396.160675	214.784424	229.499374	313.844849	236.294296	202.370483	226.909622	232.169495	239.614212	317.214844	276.409851	190.722824	91.029640	243.496689	225.078827	111.832336	324.686523	141.593475	37.538456	280.093567	423.158905	92.767647	249.165695	359.067261	47.643936	297.292511	345.341736	52.932362	191.979202	
1251	6.2550	181.548386	1569.103638	558.946350	209.445251	1568.280396	188.748459	148.797379	1607.622559	369.865662	270.659821	1516.799072	380.839722	248.156296	1224.620605	691.653198	398.292358	987.085083	804.682617	284.251099	1213.979248	92.630684	438.161133	975.105286	-9.549725	116.772339	1060.789429	362.834076	261.948395	1143.429077	226.917740	248.282822	1132.248413	531.054077	326.727783	1075.532715	260.135651	296.711853	1073.350586	523.554321	0.000000	0.000000	-0.000000	144.947357	1103.055908	307.440338	212.466904	976.188477	559.469788	245.238022	973.423401	209.543106	221.391647	847.446167	562.184570	244.445969	762.472046	554.834290	224.121140	679.533508	545.911743	280.755524	764.419006	547.156433	222.664810	538.048279	511.736420	231.816528	527.089661	416.108582	182.390396	400.525818	528.857910	199.453705	314.257263	509.196808	170.913361	232.738464	503.499023	222.786957	317.946381	476.789825	159.005554	91.814301	488.564026	201.002304	105.566437	410.900208	113.905624	41.310013	446.951721	395.407990	86.079636	505.279846	311.036865	36.207741	556.999207	328.186676	43.919704	449.508850	254.800064	855.860046	195.683304	277.547546	771.080933	203.200989	312.018494	771.922424	217.504364	253.963303	685.764526	211.172714	248.082474	531.119385	239.644165	242.229599	515.401978	327.606659	213.083191	396.164093	214.803604	229.507111	313.852295	236.301529	202.379150	226.899246	232.170380	239.641403	317.220184	276.409027	190.736404	91.025955	243.513565	225.059708	111.841927	324.686157	141.591446	37.531750	280.107819	423.169769	92.773415	249.176773	359.086823	47.643608	297.267029	345.362854	52.940861	191.993225	
1252	6.2600	181.595657	1569.105103	558.958191	209.494354	1568.288818	188.752045	148.820724	1607.601196	369.868622	270.691437	1516.815186	380.857513	248.187637	1224.618042	691.654053	398.330658	987.074097	804.690002	284.315186	1213.983521	92.640388	438.199463	975.108337	-9.562354	116.803589	1060.787598	362.834534	261.986359	1143.420044	226.933548	248.328903	1132.244507	531.063538	326.755035	1075.520874	260.175476	296.747559	1073.351929	523.552429	0.000000	0.000000	-0.000000	145.001907	1103.068115	307.438873	212.507736	976.190735	559.475525	245.287811	973.423828	209.540741	221.420883	847.459045	562.187744	244.461502	762.464417	554.835327	224.121521	679.541504	545.919861	280.787994	764.404968	547.162842	222.691711	538.042908	511.740967	231.819031	527.091614	416.098083	182.401123	400.525635	528.862427	199.477219	314.239807	509.216461	170.919342	232.744385	503.504852	222.792068	317.933685	476.771362	159.005157	91.813698	488.559845	200.974808	105.625679	410.909698	113.888542	41.282272	447.006958	395.393250	86.081749	505.270935	311.045807	36.199394	556.994995	328.186737	43.905437	449.509460	254.826828	855.859131	195.673691	277.578033	771.075439	203.197311	312.026489	771.911377	217.500336	253.989929	685.754639	211.200073	248.094711	531.123596	239.658112	242.230225	515.402100	327.594025	213.096390	396.161041	214.800812	229.502533	313.854095	236.292206	202.374496	226.905380	232.167694	239.644363	317.220947	276.435059	190.730972	91.033722	243.502350	225.081314	111.829033	324.676666	141.590759	37.535496	280.099457	423.167999	92.759918	249.171173	359.039948	47.620396	297.252472	345.357819	52.939247	191.986649	
1253	6.2650	181.635788	1569.096436	558.951416	209.533875	1568.284424	188.753296	148.850250	1607.616943	369.887756	270.730988	1516.827026	380.850220	248.199738	1224.620850	691.667847	398.338654	987.082581	804.681519	284.363129	1213.983154	92.638092	438.263489	975.119080	-9.517249	116.840675	1060.787109	362.855225	262.037964	1143.420410	226.942078	248.349670	1132.249268	531.073425	326.811188	1075.527344	260.185425	296.785370	1073.356689	523.571960	0.000000	0.000000	-0.000000	145.028320	1103.069458	307.440460	212.546188	976.185120	559.473755	245.309998	973.430542	209.541977	221.451340	847.450378	562.197144	244.507233	762.454712	554.854309	224.166428	679.530396	545.910767	280.817139	764.407715	547.189453	222.714447	538.039612	511.747772	231.843307	527.082764	416.109711	182.423950	400.534332	528.859436	199.498825	314.231506	509.215729	170.918594	232.766602	503.516357	222.809631	317.938843	476.778381	159.004684	91.813728	488.560760	200.952652	105.627747	410.912048	113.874641	41.259193	447.010742	395.406158	86.087502	505.295929	311.063019	36.201660	557.003296	328.173523	43.903996	449.514282	254.859650	855.840637	195.705704	277.613586	771.078979	203.217194	312.044250	771.916321	217.528152	254.001572	685.758240	211.201111	248.108948	531.116943	239.672150	242.252151	515.392517	327.613251	213.110611	396.174072	214.806870	229.519760	313.854279	236.313019	202.386734	226.913712	232.175583	239.639999	317.226990	276.430695	190.732712	91.029968	243.513657	225.076233	111.832184	324.683838	141.598358	37.526108	280.101624	423.166138	92.762459	249.168732	359.039459	47.620762	297.252441	345.348846	52.936131	191.968582	
